<?xml version="1.0"?>
<svg xmlns:gliffy="http://www.gliffy.com" xmlns:x="http://ns.adobe.com/Extensibility/1.0/" xmlns:i="http://ns.adobe.com/AdobeIllustrator/10.0/" xmlns:graph="http://ns.adobe.com/Graphs/1.0/" xmlns:a="http://ns.adobe.com/AdobeSVGViewerExtensions/3.0/" xmlns="http://www.w3.org/2000/svg" xmlns:xlink="http://www.w3.org/1999/xlink" width="459" height="491">
  <rect stroke="#000000" stroke-width="0" fill="#ffffff" x="0" y="0" width="458" height="455"/>
  <g transform="translate(88.0,25.5) rotate(0 50.0 37.5)">
    <defs>
      <linearGradient id="g0" x1="50%" y1="-25%" x2="50%" y2="100%">
        <stop stop-color="white" offset="0%"/>
        <stop stop-color="#d1d1d1" offset="100%"/>
      </linearGradient>
    </defs>
    <g transform="translate(4.0,4.0)">
      <rect width="100.0" height="75.0" stroke="#A8A8A8" stroke-width="0" stroke-opacity=".6" fill-opacity=".6" fill="#A8A8A8"/>
    </g>
    <rect width="100.0" height="75.0" stroke="#333333" stroke-width="2" style="fill:url(#g0)"/>
    <g transform="translate(0.0,34.5)">
      <text x="50.0" style="text-anchor: middle" y="-2.0">
        <tspan xml:space="preserve" font-size="12" font-family="Arial" fill="#000000">Receive a web</tspan>
      </text>
      <text x="50.0" style="text-anchor: middle" y="12.8">
        <tspan xml:space="preserve" font-size="12" font-family="Arial" fill="#000000">hook post</tspan>
      </text>
    </g>
  </g>
  <g transform="translate(318.0,23.5) rotate(0 50.0 37.5)">
    <defs>
      <linearGradient id="g1" x1="50%" y1="-25%" x2="50%" y2="100%">
        <stop stop-color="white" offset="0%"/>
        <stop stop-color="#d1d1d1" offset="100%"/>
      </linearGradient>
    </defs>
    <g transform="translate(4.0,4.0)">
      <rect width="100.0" height="75.0" stroke="#A8A8A8" stroke-width="0" stroke-opacity=".6" fill-opacity=".6" fill="#A8A8A8"/>
    </g>
    <rect width="100.0" height="75.0" stroke="#333333" stroke-width="2" style="fill:url(#g1)"/>
    <g transform="translate(0.0,27.5)">
      <text x="50.0" style="text-anchor: middle" y="-2.0">
        <tspan xml:space="preserve" font-size="12" font-family="Arial" fill="#000000">parse payload;</tspan>
      </text>
      <text x="50.0" style="text-anchor: middle" y="12.8">
        <tspan xml:space="preserve" font-size="12" font-family="Arial" fill="#000000">check against</tspan>
      </text>
      <text x="50.0" style="text-anchor: middle" y="27.6">
        <tspan xml:space="preserve" font-size="12" font-family="Arial" fill="#000000">RSS feed</tspan>
      </text>
    </g>
  </g>
  <g transform="translate(85.0,184.5) rotate(0 50.0 37.5)">
    <defs>
      <linearGradient id="g2" x1="50%" y1="-25%" x2="50%" y2="100%">
        <stop stop-color="white" offset="0%"/>
        <stop stop-color="#d1d1d1" offset="100%"/>
      </linearGradient>
    </defs>
    <g transform="translate(4.0,4.0)">
      <rect width="100.0" height="75.0" stroke="#A8A8A8" stroke-width="0" stroke-opacity=".6" fill-opacity=".6" fill="#A8A8A8"/>
    </g>
    <rect width="100.0" height="75.0" stroke="#333333" stroke-width="2" style="fill:url(#g2)"/>
    <g transform="translate(0.0,42.5)">
      <text x="50.0" style="text-anchor: middle" y="-2.0">
        <tspan xml:space="preserve" font-size="12" font-family="Arial" fill="#000000">return forbidden</tspan>
      </text>
    </g>
  </g>
  <g transform="translate(316.0,360.5) rotate(0 50.0 37.5)">
    <defs>
      <linearGradient id="g3" x1="50%" y1="-25%" x2="50%" y2="100%">
        <stop stop-color="white" offset="0%"/>
        <stop stop-color="#d1d1d1" offset="100%"/>
      </linearGradient>
    </defs>
    <g transform="translate(4.0,4.0)">
      <rect width="100.0" height="75.0" stroke="#A8A8A8" stroke-width="0" stroke-opacity=".6" fill-opacity=".6" fill="#A8A8A8"/>
    </g>
    <rect width="100.0" height="75.0" stroke="#333333" stroke-width="2" style="fill:url(#g3)"/>
    <g transform="translate(0.0,19.5)">
      <text x="50.0" style="text-anchor: middle" y="-2.0">
        <tspan xml:space="preserve" font-size="12" font-family="Arial" fill="#000000">trigger SNS</tspan>
      </text>
      <text x="50.0" style="text-anchor: middle" y="12.8">
        <tspan xml:space="preserve" font-size="12" font-family="Arial" fill="#000000">message and</tspan>
      </text>
      <text x="50.0" style="text-anchor: middle" y="27.6">
        <tspan xml:space="preserve" font-size="12" font-family="Arial" fill="#000000">return success</tspan>
      </text>
      <text x="50.0" style="text-anchor: middle" y="42.400000000000006">
        <tspan xml:space="preserve" font-size="12" font-family="Arial" fill="#000000">code</tspan>
      </text>
    </g>
  </g>
  <g transform="translate(188.0,63.0)">
    <path d="M0.0,-1.999999999999993 L55.0,-1.999999999999993 Q65.0,-1.999999999999993 65.0,-1.999999999999993 L65.0,-1.999999999999993 Q65.0,-1.999999999999993 65.0,-1.999999999999993 L127.0,-1.999999999999993 " stroke-dasharray="23, 0" fill="none" stroke="#000000" stroke-width="2"/>
    <g transform="translate(130.0,-1.999999999999993) rotate(180.0)">
      <path d="M9.0,-5.0 L2.0,0 L9.0,5.0 M0,0z" fill="none" stroke="#000000" stroke-width="2.0"/>
    </g>
  </g>
  <g transform="translate(366.0,98.5)">
    <path d="M0.0,0.0 L0.0,13.75 Q0.0,23.75 0.0,23.75 L0.0,23.75 Q0.0,23.75 0.0,23.75 L0.0,44.5 " stroke-dasharray="23, 0" fill="none" stroke="#000000" stroke-width="2"/>
    <g transform="translate(0.0,47.5) rotate(270.0)">
      <path d="M9.0,-5.0 L2.0,0 L9.0,5.0 M0,0z" fill="none" stroke="#000000" stroke-width="2.0"/>
    </g>
  </g>
  <g transform="translate(292.0,146.0) rotate(0 74.0 77.0)">
    <defs>
      <linearGradient id="g6" x1="50%" y1="-25%" x2="50%" y2="100%">
        <stop stop-color="white" offset="0%"/>
        <stop stop-color="#d1d1d1" offset="100%"/>
      </linearGradient>
    </defs>
    <g transform="translate(4.0,4.0)">
      <polygon points="74.0,0 148.0,77.0 74.0,154.0 0,77.0" stroke="#A8A8A8" stroke-width="0" stroke-opacity=".6" fill-opacity=".6" fill="#A8A8A8"/>
    </g>
    <polygon points="74.0,0 148.0,77.0 74.0,154.0 0,77.0" stroke="#333333" stroke-width="2" style="fill:url(#g6)"/>
    <g transform="translate(0.0,82.0)">
      <text x="74.0" style="text-anchor: middle" y="-2.0">
        <tspan xml:space="preserve" font-size="12" font-family="Arial" fill="#000000">RSS and payload match?</tspan>
      </text>
    </g>
  </g>
  <g transform="translate(366.0,300.0)">
    <path d="M0.0,0.0 L0.0,20.25 Q0.0,30.25 0.0,30.25 L0.0,30.25 Q0.0,30.25 0.0,30.25 L0.0,57.5 " stroke-dasharray="23, 0" fill="none" stroke="#000000" stroke-width="2"/>
    <g transform="translate(0.0,60.5) rotate(270.0)">
      <path d="M9.0,-5.0 L2.0,0 L9.0,5.0 M0,0z" fill="none" stroke="#000000" stroke-width="2.0"/>
    </g>
    <g transform="translate(0.0,25.25)">
      <rect fill="#ffffff" x="-14.5" y="-9.0" width="29.0" height="14"/>
      <text x="0.0" style="text-anchor: middle" y="2.0">
        <tspan font-size="12px" font-family="Arial" fill="#000000">yes</tspan>
      </text>
    </g>
  </g>
  <g transform="translate(292.0,223.0)">
    <path d="M0.0,0.0 L-43.5,0.0 Q-53.5,0.0 -53.5,0.0 L-53.5,0.0 Q-53.5,0.0 -53.5,0.0 L-104.0,0.0 " stroke-dasharray="23, 0" fill="none" stroke="#000000" stroke-width="2"/>
    <g transform="translate(-107.0,0.0) rotate(360.0)">
      <path d="M9.0,-5.0 L2.0,0 L9.0,5.0 M0,0z" fill="none" stroke="#000000" stroke-width="2.0"/>
    </g>
    <g transform="translate(-48.5,0.0)">
      <rect fill="#ffffff" x="-12.0" y="-9.0" width="24.0" height="14"/>
      <text x="0.0" style="text-anchor: middle" y="2.0">
        <tspan font-size="12px" font-family="Arial" fill="#000000">no</tspan>
      </text>
    </g>
  </g>
</svg>
